<svg width="43" height="42" viewBox="0 0 43 42" fill="none" xmlns="http://www.w3.org/2000/svg">
<circle cx="21.2882" cy="20.8654" r="20.8654" fill="white"/>
<path fill-rule="evenodd" clip-rule="evenodd" d="M21.2882 10.0156C18.342 10.0156 17.9723 10.0281 16.8147 10.0807C15.6596 10.1333 14.8709 10.3169 14.1806 10.5848C13.4568 10.8575 12.8011 11.2847 12.2594 11.8368C11.7072 12.3788 11.28 13.0347 11.0074 13.7589C10.7395 14.4483 10.5567 15.237 10.5033 16.3921C10.4508 17.5497 10.4382 17.9194 10.4382 20.8656C10.4382 23.8118 10.4508 24.1816 10.5033 25.3392C10.5559 26.4943 10.7395 27.283 11.0074 27.9724C11.2854 28.686 11.6559 29.2911 12.2594 29.8945C12.8011 30.4466 13.4568 30.8738 14.1806 31.1464C14.8709 31.4135 15.6596 31.5971 16.8147 31.6505C17.9723 31.7031 18.342 31.7156 21.2882 31.7156C24.2344 31.7156 24.6042 31.7031 25.7618 31.6505C26.9169 31.5979 27.7056 31.4143 28.395 31.1464C29.1191 30.8739 29.7751 30.4467 30.3171 29.8945C30.8693 29.3525 31.2965 28.6965 31.569 27.9724C31.8361 27.283 32.0197 26.4943 32.0731 25.3392C32.1257 24.1816 32.1382 23.8118 32.1382 20.8656C32.1382 17.9194 32.1257 17.5497 32.0731 16.3921C32.0206 15.237 31.8369 14.4483 31.5682 13.7589C31.2959 13.0348 30.869 12.3788 30.3171 11.8368C29.7751 11.2846 29.1191 10.8573 28.395 10.5848C27.7056 10.3178 26.9169 10.1341 25.7618 10.0807C24.6042 10.0281 24.2344 10.0156 21.2882 10.0156ZM21.2882 11.9703C24.1852 11.9703 24.5282 11.982 25.6725 12.0337C26.7299 12.0821 27.305 12.2591 27.6872 12.4076C28.1938 12.6046 28.5552 12.8391 28.935 13.2189C29.3147 13.5986 29.5493 13.96 29.7462 14.4666C29.8948 14.8489 30.0717 15.4231 30.1201 16.4814C30.1719 17.6248 30.1836 17.9687 30.1836 20.8656C30.1836 23.7626 30.1719 24.1056 30.1201 25.2499C30.0717 26.3082 29.8948 26.8824 29.7462 27.2646C29.5724 27.7359 29.2952 28.1623 28.935 28.5124C28.5849 28.8726 28.1585 29.1498 27.6872 29.3236C27.305 29.4722 26.7299 29.6491 25.6725 29.6975C24.529 29.7493 24.1852 29.761 21.2882 29.761C18.3913 29.761 18.0474 29.7493 16.904 29.6975C15.8457 29.6491 15.2715 29.4722 14.8892 29.3236C14.4179 29.1498 13.9916 28.8726 13.6415 28.5124C13.2813 28.1622 13.0041 27.7359 12.8302 27.2646C12.6817 26.8824 12.5047 26.3082 12.4563 25.2499C12.4046 24.1064 12.3929 23.7626 12.3929 20.8656C12.3929 17.9687 12.4046 17.6256 12.4563 16.4814C12.5047 15.4231 12.6817 14.8489 12.8302 14.4666C13.0272 13.96 13.2617 13.5986 13.6415 13.2189C13.9916 12.8586 14.4179 12.5814 14.8892 12.4076C15.2715 12.2591 15.8457 12.0821 16.904 12.0337C18.0474 11.982 18.3913 11.9703 21.2882 11.9703Z" fill="#FA8832"/>
<path fill-rule="evenodd" clip-rule="evenodd" d="M21.2884 15.0234C19.7389 15.0234 18.2529 15.6389 17.1572 16.7346C16.0616 17.8302 15.446 19.3162 15.446 20.8657C15.446 22.4152 16.0616 23.9012 17.1572 24.9969C18.2529 26.0925 19.7389 26.708 21.2884 26.708C22.8378 26.708 24.3238 26.0925 25.4195 24.9969C26.5151 23.9012 27.1307 22.4152 27.1307 20.8657C27.1307 19.3162 26.5151 17.8302 25.4195 16.7346C24.3238 15.6389 22.8378 15.0234 21.2884 15.0234ZM21.2884 24.6215C20.2923 24.6215 19.337 24.2258 18.6326 23.5214C17.9283 22.8171 17.5326 21.8618 17.5326 20.8657C17.5326 19.8696 17.9283 18.9143 18.6326 18.21C19.337 17.5056 20.2923 17.1099 21.2884 17.1099C22.2844 17.1099 23.2397 17.5056 23.9441 18.21C24.6484 18.9143 25.0441 19.8696 25.0441 20.8657C25.0441 21.8618 24.6484 22.8171 23.9441 23.5214C23.2397 24.2258 22.2844 24.6215 21.2884 24.6215ZM28.5495 15.1069C28.5495 15.2822 28.515 15.4559 28.4479 15.6179C28.3807 15.7799 28.2824 15.9271 28.1584 16.0511C28.0344 16.1751 27.8872 16.2735 27.7252 16.3406C27.5631 16.4077 27.3895 16.4423 27.2141 16.4423C27.0388 16.4423 26.8651 16.4077 26.7031 16.3406C26.5411 16.2735 26.3939 16.1751 26.2699 16.0511C26.1459 15.9271 26.0475 15.7799 25.9804 15.6179C25.9133 15.4559 25.8787 15.2822 25.8787 15.1069C25.8787 14.7527 26.0194 14.413 26.2699 14.1626C26.5203 13.9122 26.86 13.7715 27.2141 13.7715C27.5683 13.7715 27.9079 13.9122 28.1584 14.1626C28.4088 14.413 28.5495 14.7527 28.5495 15.1069Z" fill="#FA8832"/>
</svg>
