<svg width="43" height="42" viewBox="0 0 43 42" fill="none" xmlns="http://www.w3.org/2000/svg">
<circle cx="21.7111" cy="20.8654" r="20.8654" fill="white"/>
<path d="M18.3058 28.2738C19.7156 28.2827 21.1131 28.0115 22.4173 27.4761C23.7215 26.9407 24.9064 26.1517 25.9033 25.1548C26.9001 24.1579 27.6892 22.973 28.2246 21.6688C28.76 20.3646 29.0311 18.9671 29.0223 17.5573V17.0649C29.7531 16.5295 30.3856 15.8716 30.8918 15.1203C30.2037 15.4212 29.4756 15.6208 28.7302 15.7128C29.5205 15.2419 30.1134 14.5007 30.3994 13.6263C29.6629 14.0682 28.8552 14.3788 28.0124 14.5444C27.4448 13.9396 26.6937 13.5387 25.8753 13.4038C25.057 13.2688 24.2169 13.4074 23.4852 13.7979C22.7535 14.1885 22.1709 14.8093 21.8276 15.5643C21.4842 16.3194 21.3993 17.1665 21.5859 17.9746C20.0886 17.9011 18.6236 17.5131 17.2862 16.8358C15.9489 16.1585 14.7692 15.2071 13.8239 14.0436C13.3473 14.8709 13.2028 15.8483 13.4198 16.7781C13.6367 17.7078 14.1989 18.5204 14.9924 19.0513C14.407 19.0287 13.8352 18.8686 13.3232 18.5839V18.6256C13.318 19.4902 13.6092 20.3304 14.1483 21.0062C14.6875 21.682 15.442 22.1527 16.286 22.3397C15.7416 22.4861 15.1712 22.5089 14.6168 22.4064C14.8612 23.1437 15.3276 23.7874 15.9522 24.2491C16.5768 24.7108 17.329 24.968 18.1055 24.9854C16.7778 26.0542 15.1277 26.6424 13.4233 26.6546C13.1245 26.646 12.8264 26.6209 12.5303 26.5795C14.2554 27.6786 16.2603 28.2581 18.3058 28.2488" fill="#FA8832"/>
</svg>
