<svg width="42" height="42" viewBox="0 0 42 42" fill="none" xmlns="http://www.w3.org/2000/svg">
<circle cx="21.1349" cy="20.8654" r="20.8654" fill="white"/>
<path d="M29.1531 16.8621C29.0581 16.5094 28.8723 16.1877 28.6143 15.9291C28.3563 15.6705 28.035 15.484 27.6825 15.3882C26.3755 15.0293 21.1467 15.0234 21.1467 15.0234C21.1467 15.0234 15.9186 15.0176 14.6108 15.3606C14.2585 15.4609 13.9379 15.6501 13.6798 15.9099C13.4217 16.1698 13.2347 16.4916 13.1369 16.8446C12.7922 18.1516 12.7888 20.8624 12.7888 20.8624C12.7888 20.8624 12.7855 23.5866 13.1277 24.8803C13.3196 25.5955 13.883 26.1606 14.5991 26.3533C15.9195 26.7122 21.1341 26.7181 21.1341 26.7181C21.1341 26.7181 26.363 26.7239 27.67 26.3817C28.0226 26.286 28.3442 26.0999 28.6028 25.8419C28.8615 25.5838 29.0483 25.2627 29.1448 24.9103C29.4903 23.6041 29.4928 20.8941 29.4928 20.8941C29.4928 20.8941 29.5095 18.1691 29.1531 16.8621ZM19.4741 23.3738L19.4783 18.3661L23.8241 20.8741L19.4741 23.3738Z" fill="#FA8832"/>
</svg>
